<svg xmlns="http://www.w3.org/2000/svg" viewBox="0 0 512 512">
  <rect width="512" height="512" rx="96" fill="#0a0909"/>
  <text x="256" y="230" text-anchor="middle" font-family="Georgia, 'Cormorant Garamond', serif" font-size="150" fill="#c4506a" font-weight="400">PP</text>
  <rect x="106" y="300" width="300" height="70" rx="8" fill="#f0ebe3"/>
  <g stroke="#0a0909" stroke-width="6">
    <line x1="126" y1="300" x2="126" y2="370"/>
    <line x1="140" y1="300" x2="140" y2="370"/>
    <line x1="156" y1="300" x2="156" y2="370"/>
    <line x1="172" y1="300" x2="172" y2="370"/>
    <line x1="182" y1="300" x2="182" y2="370"/>
    <line x1="200" y1="300" x2="200" y2="370"/>
    <line x1="216" y1="300" x2="216" y2="370"/>
    <line x1="230" y1="300" x2="230" y2="370"/>
    <line x1="248" y1="300" x2="248" y2="370"/>
    <line x1="256" y1="300" x2="256" y2="370"/>
    <line x1="272" y1="300" x2="272" y2="370"/>
    <line x1="290" y1="300" x2="290" y2="370"/>
    <line x1="304" y1="300" x2="304" y2="370"/>
    <line x1="322" y1="300" x2="322" y2="370"/>
    <line x1="336" y1="300" x2="336" y2="370"/>
    <line x1="352" y1="300" x2="352" y2="370"/>
    <line x1="368" y1="300" x2="368" y2="370"/>
    <line x1="386" y1="300" x2="386" y2="370"/>
  </g>
</svg>
